<svg xmlns="http://www.w3.org/2000/svg" viewBox="0 0 800 450" width="800" height="450" role="img" aria-label="Abstrakte Illustration von Händen, die sich verbinden"><defs><linearGradient id="g" x1="0" y1="0" x2="1" y2="1"><stop offset="0%" stop-color="#00bfae"/><stop offset="100%" stop-color="#0097a7"/></linearGradient></defs><rect width="800" height="450" rx="28" fill="#f0fafa"/><path d="M140 300c60-40 90-60 150-40s120 20 170-10 110-40 200-10" fill="none" stroke="url(#g)" stroke-width="34" stroke-linecap="round" stroke-linejoin="round" opacity="0.35"/><g stroke="#0097a7" stroke-width="10" stroke-linecap="round" stroke-linejoin="round" fill="none"><path d="M170 290c40-30 60-45 100-30s80 15 110-8"/><path d="M470 235c45-15 70-30 120-10 25 10 50 10 70 0"/></g><g fill="#0097a7" opacity="0.9"><circle cx="170" cy="290" r="14"/><circle cx="370" cy="252" r="14"/><circle cx="470" cy="235" r="14"/><circle cx="660" cy="225" r="14"/></g><g fill="#006978" font-family="Inter,Arial,sans-serif" font-size="14" font-weight="600"><text x="158" y="325">RESPEKT</text><text x="352" y="287">SOLIDARITÄT</text><text x="452" y="270">EMPÄTHIE</text><text x="645" y="260">HILFE</text></g></svg>
