<?xml version="1.0" encoding="UTF-8"?>
<svg xmlns="http://www.w3.org/2000/svg" width="1200" height="675" viewBox="0 0 1200 675" role="img" aria-labelledby="title desc">
  <title id="title">Viele Menschen fröhlich zusammen – menschliche Illustration</title>
  <desc id="desc">Eine diverse Gruppe lächelnder Menschen in freundlichem, menschlichem Cartoon‑Stil, warmes Licht, sanfte Farben.</desc>
  <defs>
    <linearGradient id="bg" x1="0" y1="0" x2="0" y2="1">
      <stop offset="0%" stop-color="#F8FAFF"/>
      <stop offset="100%" stop-color="#ECF3FF"/>
    </linearGradient>
    <clipPath id="r">
      <rect x="0" y="0" width="1200" height="675" rx="16" ry="16"/>
    </clipPath>
    <filter id="s" x="-20%" y="-20%" width="140%" height="140%">
      <feDropShadow dx="0" dy="6" stdDeviation="12" flood-color="#000" flood-opacity="0.08"/>
    </filter>
  </defs>

  <g clip-path="url(#r)">
    <rect x="0" y="0" width="1200" height="675" fill="url(#bg)"/>

    <!-- Soft sun -->
    <circle cx="1020" cy="120" r="76" fill="#FFE9B3" opacity="0.6"/>
    <circle cx="1020" cy="120" r="110" fill="#FFE9B3" opacity="0.15"/>

    <!-- Confetti dots -->
    <g fill="#D7E6FF" opacity="0.6">
      <circle cx="80" cy="80" r="4"/>
      <circle cx="210" cy="60" r="3"/>
      <circle cx="320" cy="130" r="5"/>
      <circle cx="540" cy="70" r="3"/>
      <circle cx="880" cy="60" r="4"/>
      <circle cx="1040" cy="210" r="3"/>
    </g>

    <!-- Ground shape -->
    <path d="M0,520 C240,470 360,520 600,520 C840,520 960,470 1200,520 L1200,675 L0,675 Z" fill="#FFFFFF"/>

    <!-- Group of people (front row) -->
    <g transform="translate(100,270)" filter="url(#s)">
      <!-- Person 1 -->
      <g transform="translate(0,0)">
        <rect x="0" y="120" width="120" height="170" rx="16" fill="#4F67FF"/>
        <circle cx="60" cy="100" r="44" fill="#F0C7A4"/>
        <path d="M36,95 q24,22 48,0" stroke="#1D2B5F" stroke-width="3" fill="none"/>
        <circle cx="46" cy="92" r="4" fill="#1D2B5F"/>
        <circle cx="74" cy="92" r="4" fill="#1D2B5F"/>
        <path d="M35,78 q25,-24 50,0 q-13,6 -25,6 q-12,0 -25,-6" fill="#2A2A2A"/>
      </g>

      <!-- Person 2 -->
      <g transform="translate(140,10)">
        <rect x="0" y="120" width="130" height="170" rx="16" fill="#FF7A59"/>
        <circle cx="65" cy="95" r="46" fill="#DFA78C"/>
        <circle cx="52" cy="92" r="4" fill="#1D2B5F"/>
        <circle cx="78" cy="92" r="4" fill="#1D2B5F"/>
        <path d="M51,112 q14,10 28,0" stroke="#1D2B5F" stroke-width="3" fill="none" stroke-linecap="round"/>
        <path d="M32,72 q33,-20 66,0 q-22,10 -33,10 q-11,0 -33,-10" fill="#5B3B2C"/>
      </g>

      <!-- Person 3 -->
      <g transform="translate(290,-5)">
        <rect x="0" y="120" width="130" height="170" rx="16" fill="#33B07A"/>
        <circle cx="65" cy="92" r="46" fill="#8D5E3C"/>
        <circle cx="52" cy="90" r="4" fill="#10223A"/>
        <circle cx="78" cy="90" r="4" fill="#10223A"/>
        <path d="M50,110 q15,12 30,0" stroke="#10223A" stroke-width="3" fill="none" stroke-linecap="round"/>
        <path d="M32,72 q33,-20 66,0 q-25,14 -33,14 q-8,0 -33,-14" fill="#2E2E2E"/>
      </g>

      <!-- Person 4 (center, waving) -->
      <g transform="translate(440,-10)">
        <rect x="0" y="120" width="150" height="180" rx="18" fill="#9055FF"/>
        <circle cx="75" cy="88" r="50" fill="#F3D2B9"/>
        <circle cx="60" cy="86" r="5" fill="#1D2B5F"/>
        <circle cx="90" cy="86" r="5" fill="#1D2B5F"/>
        <path d="M58,110 q17,14 34,0" stroke="#1D2B5F" stroke-width="3.5" fill="none" stroke-linecap="round"/>
        <path d="M44,66 q31,-22 62,0 q-24,10 -31,10 q-7,0 -31,-10" fill="#2B2B2B"/>
        <!-- Arm up -->
        <path d="M140,150 q22,-22 18,-54" stroke="#F3D2B9" stroke-width="16" fill="none" stroke-linecap="round"/>
        <circle cx="160" cy="88" r="8" fill="#F3D2B9"/>
      </g>

      <!-- Person 5 -->
      <g transform="translate(610,0)">
        <rect x="0" y="125" width="140" height="170" rx="16" fill="#00A2D6"/>
        <circle cx="70" cy="100" r="48" fill="#C38E70"/>
        <circle cx="56" cy="98" r="4" fill="#10223A"/>
        <circle cx="82" cy="98" r="4" fill="#10223A"/>
        <path d="M54,120 q18,12 36,0" stroke="#10223A" stroke-width="3" fill="none" stroke-linecap="round"/>
        <path d="M40,78 q30,-24 60,0 q-18,10 -30,10 q-12,0 -30,-10" fill="#3B2D2A"/>
      </g>

      <!-- Person 6 -->
      <g transform="translate(760,10)">
        <rect x="0" y="120" width="130" height="170" rx="16" fill="#FFC145"/>
        <circle cx="65" cy="95" r="46" fill="#E9C1A6"/>
        <circle cx="52" cy="92" r="4" fill="#1D2B5F"/>
        <circle cx="78" cy="92" r="4" fill="#1D2B5F"/>
        <path d="M51,114 q14,10 28,0" stroke="#1D2B5F" stroke-width="3" fill="none" stroke-linecap="round"/>
        <path d="M32,73 q33,-20 66,0 q-16,9 -30,11 q-14,2 -36,-11" fill="#6F462D"/>
      </g>
    </g>

    <!-- Back row (lighter) -->
    <g transform="translate(80,250)" opacity="0.9">
      <g transform="translate(20,0)">
        <rect x="0" y="140" width="110" height="150" rx="14" fill="#B6C7FF"/>
        <circle cx="55" cy="128" r="38" fill="#E8C3AD"/>
      </g>
      <g transform="translate(160,-10)">
        <rect x="0" y="150" width="120" height="150" rx="14" fill="#FFB39F"/>
        <circle cx="60" cy="130" r="40" fill="#9B6A4D"/>
      </g>
      <g transform="translate(310,-20)">
        <rect x="0" y="160" width="120" height="150" rx="14" fill="#9FE6C8"/>
        <circle cx="60" cy="140" r="40" fill="#E1BFA5"/>
      </g>
      <g transform="translate(460,-10)">
        <rect x="0" y="150" width="120" height="150" rx="14" fill="#C7E6FF"/>
        <circle cx="60" cy="130" r="40" fill="#B48662"/>
      </g>
      <g transform="translate(610,0)">
        <rect x="0" y="140" width="120" height="150" rx="14" fill="#FFE7A3"/>
        <circle cx="60" cy="128" r="38" fill="#E5C2AB"/>
      </g>
      <g transform="translate(760,10)">
        <rect x="0" y="140" width="110" height="150" rx="14" fill="#A8F0FF"/>
        <circle cx="55" cy="128" r="38" fill="#875E44"/>
      </g>
    </g>
  </g>
</svg>
