<?xml version="1.0" encoding="UTF-8"?>
<svg xmlns="http://www.w3.org/2000/svg" viewBox="0 0 960 540" width="960" height="540" role="img" aria-labelledby="title desc">
  <title id="title">Gemeinschaft – viele Menschen glücklich zusammen</title>
  <desc id="desc">Illustration einer fröhlichen, vielfältigen Gruppe von Menschen, die zusammenstehen und lächeln.</desc>
  <defs>
    <linearGradient id="bg" x1="0" y1="0" x2="1" y2="1">
      <stop offset="0" stop-color="#e8fbff"/>
      <stop offset="1" stop-color="#d2f7f1"/>
    </linearGradient>
    <clipPath id="card">
      <rect x="16" y="16" width="928" height="508" rx="18" ry="18"/>
    </clipPath>
  </defs>
  <rect width="100%" height="100%" fill="url(#bg)"/>
  <g clip-path="url(#card)">
    <!-- leichte Deko-Halos -->
    <g opacity=".25">
      <circle cx="120" cy="80" r="60" fill="#a6edf1"/>
      <circle cx="860" cy="120" r="70" fill="#a6e5de"/>
      <circle cx="480" cy="40" r="55" fill="#c9f3f6"/>
    </g>
    <!-- Bodenfläche -->
    <rect x="0" y="380" width="960" height="200" fill="#f2fafc"/>

    <!-- Gruppe von Menschen (3 Reihen) -->
    <g transform="translate(0,10)">
      <!-- Hintere Reihe -->
      <g transform="translate(80,160)">
        <!-- 8 Personen -->
        <!-- Person helper: torso (rounded), head (circle), smile (path) -->
        <g transform="translate(0,0)">
          <rect x="-20" y="60" width="90" height="90" rx="18" fill="#5cc6c9"/>
          <circle cx="25" cy="50" r="28" fill="#ffe9d6"/>
          <path d="M10,55 q15,16 30,0" stroke="#8b5e3c" stroke-width="4" fill="none" stroke-linecap="round"/>
        </g>
        <g transform="translate(110,0)">
          <rect x="-20" y="60" width="90" height="90" rx="18" fill="#7fb6f0"/>
          <circle cx="25" cy="50" r="28" fill="#fbd8df"/>
          <path d="M10,55 q15,16 30,0" stroke="#8b3c6a" stroke-width="4" fill="none" stroke-linecap="round"/>
        </g>
        <g transform="translate(220,0)">
          <rect x="-20" y="60" width="90" height="90" rx="18" fill="#ffd16a"/>
          <circle cx="25" cy="50" r="28" fill="#ffe9d6"/>
          <path d="M10,55 q15,16 30,0" stroke="#8b5e3c" stroke-width="4" fill="none" stroke-linecap="round"/>
        </g>
        <g transform="translate(330,0)">
          <rect x="-20" y="60" width="90" height="90" rx="18" fill="#9ed771"/>
          <circle cx="25" cy="50" r="28" fill="#f2e2ff"/>
          <path d="M10,55 q15,16 30,0" stroke="#634a8b" stroke-width="4" fill="none" stroke-linecap="round"/>
        </g>
        <g transform="translate(440,0)">
          <rect x="-20" y="60" width="90" height="90" rx="18" fill="#6bd3b0"/>
          <circle cx="25" cy="50" r="28" fill="#ffe9d6"/>
          <path d="M10,55 q15,16 30,0" stroke="#8b5e3c" stroke-width="4" fill="none" stroke-linecap="round"/>
        </g>
        <g transform="translate(550,0)">
          <rect x="-20" y="60" width="90" height="90" rx="18" fill="#ff9f7a"/>
          <circle cx="25" cy="50" r="28" fill="#fbd8df"/>
          <path d="M10,55 q15,16 30,0" stroke="#8b3c6a" stroke-width="4" fill="none" stroke-linecap="round"/>
        </g>
        <g transform="translate(660,0)">
          <rect x="-20" y="60" width="90" height="90" rx="18" fill="#7ad1ff"/>
          <circle cx="25" cy="50" r="28" fill="#ffe9d6"/>
          <path d="M10,55 q15,16 30,0" stroke="#8b5e3c" stroke-width="4" fill="none" stroke-linecap="round"/>
        </g>
        <g transform="translate(770,0)">
          <rect x="-20" y="60" width="90" height="90" rx="18" fill="#caa7ff"/>
          <circle cx="25" cy="50" r="28" fill="#f2e2ff"/>
          <path d="M10,55 q15,16 30,0" stroke="#634a8b" stroke-width="4" fill="none" stroke-linecap="round"/>
        </g>
      </g>

      <!-- Mittlere Reihe -->
      <g transform="translate(60,190)">
        <!-- 7 Personen -->
        <g transform="translate(0,0)">
          <rect x="-20" y="60" width="92" height="96" rx="20" fill="#00bfae"/>
          <circle cx="26" cy="50" r="30" fill="#ffe3c2"/>
          <path d="M10,56 q16,18 32,0" stroke="#7a4f2e" stroke-width="4" fill="none" stroke-linecap="round"/>
        </g>
        <g transform="translate(130,0)">
          <rect x="-20" y="60" width="92" height="96" rx="20" fill="#1e88e5"/>
          <circle cx="26" cy="50" r="30" fill="#ffd4dc"/>
          <path d="M10,56 q16,18 32,0" stroke="#7a2e5b" stroke-width="4" fill="none" stroke-linecap="round"/>
        </g>
        <g transform="translate(260,0)">
          <rect x="-20" y="60" width="92" height="96" rx="20" fill="#ffb74d"/>
          <circle cx="26" cy="50" r="30" fill="#ffe3c2"/>
          <path d="M10,56 q16,18 32,0" stroke="#7a4f2e" stroke-width="4" fill="none" stroke-linecap="round"/>
        </g>
        <g transform="translate(390,0)">
          <rect x="-20" y="60" width="92" height="96" rx="20" fill="#8bc34a"/>
          <circle cx="26" cy="50" r="30" fill="#e6dbff"/>
          <path d="M10,56 q16,18 32,0" stroke="#523b79" stroke-width="4" fill="none" stroke-linecap="round"/>
        </g>
        <g transform="translate(520,0)">
          <rect x="-20" y="60" width="92" height="96" rx="20" fill="#26c6da"/>
          <circle cx="26" cy="50" r="30" fill="#ffe3c2"/>
          <path d="M10,56 q16,18 32,0" stroke="#7a4f2e" stroke-width="4" fill="none" stroke-linecap="round"/>
        </g>
        <g transform="translate(650,0)">
          <rect x="-20" y="60" width="92" height="96" rx="20" fill="#ff8a65"/>
          <circle cx="26" cy="50" r="30" fill="#ffd4dc"/>
          <path d="M10,56 q16,18 32,0" stroke="#7a2e5b" stroke-width="4" fill="none" stroke-linecap="round"/>
        </g>
        <g transform="translate(780,0)">
          <rect x="-20" y="60" width="92" height="96" rx="20" fill="#64b5f6"/>
          <circle cx="26" cy="50" r="30" fill="#ffe3c2"/>
          <path d="M10,56 q16,18 32,0" stroke="#7a4f2e" stroke-width="4" fill="none" stroke-linecap="round"/>
        </g>
      </g>

      <!-- Vordere Reihe -->
      <g transform="translate(40,230)">
        <!-- 6 Personen, etwas größer -->
        <g transform="translate(0,0)">
          <rect x="-24" y="60" width="110" height="110" rx="24" fill="#00a896"/>
          <circle cx="31" cy="50" r="34" fill="#ffdfbd"/>
          <path d="M12,58 q18,20 36,0" stroke="#6a3f1f" stroke-width="5" fill="none" stroke-linecap="round"/>
        </g>
        <g transform="translate(160,0)">
          <rect x="-24" y="60" width="110" height="110" rx="24" fill="#1565c0"/>
          <circle cx="31" cy="50" r="34" fill="#ffccda"/>
          <path d="M12,58 q18,20 36,0" stroke="#6a1f4e" stroke-width="5" fill="none" stroke-linecap="round"/>
        </g>
        <g transform="translate(320,0)">
          <rect x="-24" y="60" width="110" height="110" rx="24" fill="#ffa000"/>
          <circle cx="31" cy="50" r="34" fill="#ffdfbd"/>
          <path d="M12,58 q18,20 36,0" stroke="#6a3f1f" stroke-width="5" fill="none" stroke-linecap="round"/>
        </g>
        <g transform="translate(480,0)">
          <rect x="-24" y="60" width="110" height="110" rx="24" fill="#7cb342"/>
          <circle cx="31" cy="50" r="34" fill="#e3d3ff"/>
          <path d="M12,58 q18,20 36,0" stroke="#4d3472" stroke-width="5" fill="none" stroke-linecap="round"/>
        </g>
        <g transform="translate(640,0)">
          <rect x="-24" y="60" width="110" height="110" rx="24" fill="#26a69a"/>
          <circle cx="31" cy="50" r="34" fill="#ffdfbd"/>
          <path d="M12,58 q18,20 36,0" stroke="#6a3f1f" stroke-width="5" fill="none" stroke-linecap="round"/>
        </g>
        <g transform="translate(800,0)">
          <rect x="-24" y="60" width="110" height="110" rx="24" fill="#ff7043"/>
          <circle cx="31" cy="50" r="34" fill="#ffccda"/>
          <path d="M12,58 q18,20 36,0" stroke="#6a1f4e" stroke-width="5" fill="none" stroke-linecap="round"/>
        </g>
      </g>

      <!-- kleine Deko-Konfetti -->
      <g opacity=".5">
        <circle cx="160" cy="120" r="6" fill="#00bfae"/>
        <rect x="720" y="200" width="10" height="10" rx="2" fill="#1e88e5"/>
        <circle cx="820" cy="80" r="5" fill="#ff8a65"/>
        <rect x="260" y="120" width="8" height="8" rx="2" fill="#9c27b0"/>
        <circle cx="480" cy="120" r="5" fill="#ffb74d"/>
      </g>
    </g>
  </g>
  <!-- Kartenrahmen -->
  <rect x="16" y="16" width="928" height="508" rx="18" ry="18" fill="none" stroke="#cfe8ea" stroke-width="2"/>
</svg>
