<?xml version="1.0" encoding="UTF-8"?>
<svg width="512" height="512" viewBox="0 0 512 512" xmlns="http://www.w3.org/2000/svg" role="img" aria-label="VCan Logo – verbindender Handschlag als Herz">
  <title>VCan Logo</title>
  <defs>
    <style>
      .outline{fill:#ffffff;}
      .hand-left{fill:#0097a7;}
      .hand-right{fill:#e64b3c;}
    </style>
  </defs>
  <!-- Heart / handshake formed by two hands -->
  <path class="outline" d="M256 470c-9 0-18-3-25-9l-157-134C27 306 10 258 18 210c5-33 23-63 50-83 20-15 44-23 69-23 34 0 66 14 89 38l30 31 30-31c23-24 55-38 89-38 25 0 49 8 69 23 27 20 45 50 50 83 8 48-9 96-56 133L281 461c-7 6-16 9-25 9Z"/>
  <path class="hand-left" d="M232 439  ninety"/>
  <!-- Simplified combined path for left (teal) side -->
  <path class="hand-left" d="M256 421 122 307c-37-29-50-61-45-95 7-46 44-78 87-78 24 0 47 10 64 28l28 29v230Z"/>
  <!-- Right (red) side -->
  <path class="hand-right" d="M256 421V191l28-29c17-18 40-28 64-28 43 0 80 32 87 78 5 34-8 66-45 95L256 421Z"/>
  <!-- Fingers / handshake detail (white separators) -->
  <g fill="#ffffff" opacity="0.9">
    <rect x="188" y="270" width="136" height="20" rx="10"/>
    <rect x="188" y="304" width="136" height="20" rx="10"/>
    <rect x="188" y="338" width="136" height="20" rx="10"/>
    <rect x="188" y="372" width="100" height="20" rx="10"/>
  </g>
</svg>
